<?xml version="1.0" encoding="utf-8"?>
<!-- Generator: Adobe Illustrator 14.0.0, SVG Export Plug-In . SVG Version: 6.00 Build 43363)  -->
<!DOCTYPE svg PUBLIC "-//W3C//DTD SVG 1.1//EN" "http://www.w3.org/Graphics/SVG/1.1/DTD/svg11.dtd">
<svg version="1.1" id="Layer_1" xmlns="http://www.w3.org/2000/svg" xmlns:xlink="http://www.w3.org/1999/xlink" x="0px" y="0px"
	 width="237px" height="75px" viewBox="0 0 237 75" enable-background="new 0 0 237 75" xml:space="preserve">
<path fill="#002B49" d="M6.041,46.355V32.068H1.432v-2.794h7.786v4.087h1.432c0.594-2.201,3.667-5.24,7.682-4.437v3.563
	c-4.818-1.467-9.113,1.711-9.113,6.882v6.986h9.044v2.795H0v-2.795H6.041z"/>
<path fill="#002B49" d="M33.694,28.714c6.425,0,9.567,4.471,9.567,10.166v0.873H27.375c0.104,4.401,2.514,7.267,6.319,7.267
	c2.933,0,4.853-1.643,5.831-4.332h3.316c-1.117,4.088-4.016,6.986-9.183,6.986c-6.319,0-9.497-4.471-9.497-10.199V38.88
	C24.197,33.186,27.375,28.714,33.694,28.714z M33.694,31.404c-3.422,0-5.727,2.235-6.181,5.869h12.431
	C39.49,33.64,37.186,31.404,33.694,31.404z"/>
<path fill="#002B49" d="M57.402,28.714c3.597,0,5.203,2.096,5.482,3.808h1.432v-3.249h3.177v19.842h-3.177v-3.249h-1.432
	c-0.314,1.712-1.852,3.808-5.482,3.808c-5.517,0-8.973-4.471-8.973-10.199V38.88C48.43,33.186,51.886,28.714,57.402,28.714z
	 M58.031,46.949c3.98,0,6.285-2.899,6.285-7.477V38.88c0-4.576-2.305-7.371-6.285-7.371c-3.876,0-6.355,2.83-6.355,7.371v0.595
	C51.676,44.05,54.12,46.949,58.031,46.949z"/>
<path fill="#002B49" d="M83.066,28.714c5.271,0,8.414,3.004,9.393,7.231h-3.248c-0.942-2.83-3.143-4.541-6.145-4.541
	c-3.877,0-6.46,2.864-6.46,7.476v0.595c0,4.575,2.583,7.51,6.46,7.51c2.933,0,5.063-1.535,6.074-4.297h3.283
	c-1.083,4.123-4.19,6.986-9.357,6.986c-6.32,0-9.637-4.471-9.637-10.199V38.88C73.43,33.151,76.746,28.714,83.066,28.714z"/>
<path fill="#002B49" d="M102.549,29.273c0.979,0,1.258-0.279,1.258-1.258v-4.681h3.176v5.938h9.848v2.794h-9.848v13.973h9.848v3.109
	h-10.196c-1.536,0-2.827-1.258-2.827-2.83v-14.25h-6.041v-2.794L102.549,29.273L102.549,29.273z"/>
<path fill="#002B49" d="M130.587,46.355V32.068h-6.354v-2.794h9.531v17.082h7.543v2.795h-18.262v-2.795H130.587L130.587,46.355z
	 M132.158,19.353c1.467,0,2.724,1.258,2.724,2.83c0,1.467-1.257,2.725-2.724,2.725c-1.536,0-2.828-1.257-2.828-2.725
	C129.33,20.61,130.622,19.353,132.158,19.353z"/>
<path fill="#002B49" d="M157.402,47.055c2.584,0,5.133-1.188,5.133-3.389c0-1.782-1.467-2.516-4.26-2.971l-2.828-0.488
	c-3.877-0.629-6.426-2.445-6.426-5.554c0-3.109,3.213-5.938,7.334-5.938c4.293,0,7.506,2.096,8.24,6.567h-3.145
	c-0.699-3.458-3.18-3.982-5.063-3.982c-2.025,0-4.33,1.118-4.33,3.179c0,1.537,0.979,2.271,3.875,2.899
	c0.56,0.105,2.516,0.489,3.178,0.594c3.213,0.559,6.6,1.676,6.6,5.833c0,3.844-3.875,5.869-8.729,5.869
	c-4.922,0-8.379-2.795-9.112-6.986h3.177C151.885,45.971,154.714,47.055,157.402,47.055z"/>
<path fill="#A1ABB1" d="M207.158,2.69c0-1.502,1.222-2.69,2.689-2.69c1.5,0,2.688,1.223,2.688,2.69c0,1.502-1.223,2.689-2.688,2.689
	C208.346,5.379,207.158,4.157,207.158,2.69z"/>
<path fill="#A1ABB1" d="M209.848,13.519c-1.502,0-2.688-1.223-2.688-2.689c0-1.502,1.222-2.69,2.688-2.69
	c1.5,0,2.688,1.188,2.688,2.69C212.535,12.331,211.348,13.519,209.848,13.519z"/>
<path fill="#002B49" d="M201.711,13.519c-1.501,0-2.689-1.223-2.689-2.689c0-1.502,1.188-2.69,2.689-2.69s2.689,1.188,2.689,2.69
	C204.4,12.331,203.177,13.519,201.711,13.519z"/>
<path fill="#002B49" d="M201.711,21.693c-1.501,0-2.689-1.188-2.689-2.69s1.188-2.69,2.689-2.69s2.689,1.223,2.689,2.69
	S203.177,21.693,201.711,21.693z"/>
<path fill="#002B49" d="M201.711,37.972c-1.501,0-2.689-1.223-2.689-2.69c0-1.502,1.188-2.69,2.689-2.69s2.689,1.188,2.689,2.69
	S203.177,37.972,201.711,37.972z"/>
<path fill="#002B49" d="M190.854,18.968c0-1.502,1.224-2.689,2.688-2.689c1.501,0,2.688,1.222,2.688,2.689
	c0,1.502-1.188,2.69-2.688,2.69C192.075,21.693,190.854,20.471,190.854,18.968z"/>
<path fill="#002B49" d="M190.854,27.143c0-1.502,1.224-2.69,2.688-2.69c1.501,0,2.688,1.223,2.688,2.69
	c0,1.502-1.188,2.689-2.688,2.689C192.075,29.832,190.854,28.609,190.854,27.143z"/>
<path fill="#002B49" d="M182.717,27.143c0-1.502,1.223-2.69,2.688-2.69c1.505,0,2.689,1.223,2.689,2.69
	c0,1.502-1.222,2.689-2.689,2.689C183.939,29.832,182.717,28.609,182.717,27.143z"/>
<path fill="#002B49" d="M190.854,35.282c0-1.502,1.224-2.69,2.688-2.69c1.501,0,2.688,1.188,2.688,2.69s-1.188,2.69-2.688,2.69
	C192.075,37.972,190.854,36.784,190.854,35.282z"/>
<path fill="#A1ABB1" d="M209.848,46.111c-1.502,0-2.688-1.188-2.688-2.69s1.222-2.688,2.688-2.688c1.5,0,2.688,1.224,2.688,2.688
	C212.535,44.924,211.348,46.111,209.848,46.111z"/>
<path fill="#002B49" d="M201.711,46.111c-1.501,0-2.689-1.188-2.689-2.69s1.188-2.688,2.689-2.688s2.689,1.224,2.689,2.688
	C204.4,44.924,203.177,46.111,201.711,46.111z"/>
<path fill="#A1ABB1" d="M209.848,54.285c-1.502,0-2.688-1.188-2.688-2.689c0-1.501,1.222-2.688,2.688-2.688
	c1.5,0,2.688,1.223,2.688,2.688C212.535,53.063,211.348,54.285,209.848,54.285z"/>
<path fill="#00CE7C" d="M209.848,26.095c-1.502,0-2.688-1.188-2.688-2.688c0-1.502,1.222-2.69,2.688-2.69
	c1.5,0,2.688,1.223,2.688,2.69C212.536,24.872,211.348,26.095,209.848,26.095z"/>
<path fill="#00CE7C" d="M207.158,31.544c0-1.502,1.222-2.69,2.689-2.69c1.5,0,2.688,1.188,2.688,2.69s-1.223,2.69-2.688,2.69
	C208.38,34.234,207.158,33.011,207.158,31.544z"/>
<path fill="#00CE7C" d="M215.294,31.544c0-1.502,1.222-2.69,2.688-2.69c1.502,0,2.688,1.188,2.688,2.69s-1.188,2.69-2.688,2.69
	C216.516,34.234,215.294,33.011,215.294,31.544z"/>
<path fill="#00CE7C" d="M215.294,39.684c0-1.502,1.222-2.688,2.688-2.688c1.502,0,2.688,1.223,2.688,2.688
	c0,1.502-1.188,2.689-2.688,2.689C216.516,42.373,215.294,41.186,215.294,39.684z"/>
<path fill="#00CE7C" d="M215.294,55.997c0-1.503,1.222-2.69,2.688-2.69c1.502,0,2.688,1.188,2.688,2.69s-1.188,2.688-2.688,2.688
	C216.516,58.688,215.294,57.464,215.294,55.997z"/>
<path fill="#00CE7C" d="M226.152,42.373c-1.5,0-2.688-1.188-2.688-2.689c0-1.5,1.188-2.688,2.688-2.688
	c1.502,0,2.688,1.223,2.688,2.688C228.841,41.186,227.619,42.373,226.152,42.373z"/>
<path fill="#00CE7C" d="M226.152,50.547c-1.5,0-2.688-1.188-2.688-2.689c0-1.5,1.188-2.688,2.688-2.688
	c1.502,0,2.688,1.225,2.688,2.688C228.84,49.324,227.619,50.547,226.152,50.547z"/>
<path fill="#00CE7C" d="M234.288,50.547c-1.501,0-2.688-1.188-2.688-2.689c0-1.5,1.225-2.688,2.688-2.688
	c1.502,0,2.688,1.225,2.688,2.688C236.977,49.324,235.79,50.547,234.288,50.547z"/>
<path fill="#00CE7C" d="M226.152,58.688c-1.5,0-2.688-1.224-2.688-2.688c0-1.503,1.188-2.688,2.688-2.688
	c1.502,0,2.688,1.188,2.688,2.688C228.841,57.464,227.619,58.688,226.152,58.688z"/>
<path fill="#00CE7C" d="M207.158,64.137c0-1.503,1.222-2.688,2.689-2.688c1.5,0,2.688,1.223,2.688,2.688
	c0,1.502-1.223,2.689-2.688,2.689C208.38,66.826,207.158,65.639,207.158,64.137z"/>
<path fill="#00CE7C" d="M215.294,64.137c0-1.503,1.222-2.688,2.688-2.688c1.502,0,2.688,1.223,2.688,2.688
	c0,1.502-1.188,2.689-2.688,2.689C216.516,66.826,215.294,65.639,215.294,64.137z"/>
<path fill="#00CE7C" d="M207.158,72.311c0-1.502,1.222-2.688,2.689-2.688c1.5,0,2.688,1.223,2.688,2.688
	c0,1.502-1.223,2.689-2.688,2.689C208.38,75,207.158,73.777,207.158,72.311z"/>
<path fill="#FFFFFF" d="M353.291,46.355V32.068h-4.609v-2.794h7.786v4.087h1.433c0.595-2.201,3.666-5.24,7.683-4.437v3.563
	c-4.817-1.467-9.112,1.711-9.112,6.882v6.986h9.045v2.795H347.25v-2.795H353.291z"/>
<path fill="#FFFFFF" d="M380.943,28.714c6.426,0,9.566,4.471,9.566,10.166v0.873h-15.887c0.104,4.401,2.516,7.267,6.318,7.267
	c2.934,0,4.854-1.643,5.83-4.332h3.316c-1.117,4.088-4.016,6.986-9.184,6.986c-6.318,0-9.496-4.471-9.496-10.199V38.88
	C371.447,33.186,374.625,28.714,380.943,28.714z M380.943,31.404c-3.422,0-5.728,2.235-6.18,5.869h12.43
	C386.74,33.64,384.436,31.404,380.943,31.404z"/>
<path fill="#FFFFFF" d="M404.652,28.714c3.597,0,5.203,2.096,5.48,3.808h1.434v-3.249h3.177v19.842h-3.177v-3.249h-1.434
	c-0.313,1.712-1.852,3.808-5.48,3.808c-5.519,0-8.973-4.471-8.973-10.199V38.88C395.68,33.186,399.136,28.714,404.652,28.714z
	 M405.281,46.949c3.979,0,6.285-2.899,6.285-7.477V38.88c0-4.576-2.307-7.371-6.285-7.371c-3.876,0-6.355,2.83-6.355,7.371v0.595
	C398.926,44.05,401.37,46.949,405.281,46.949z"/>
<path fill="#FFFFFF" d="M430.316,28.714c5.271,0,8.414,3.004,9.393,7.231h-3.248c-0.941-2.83-3.143-4.541-6.145-4.541
	c-3.877,0-6.46,2.864-6.46,7.476v0.595c0,4.575,2.583,7.51,6.46,7.51c2.933,0,5.063-1.535,6.072-4.297h3.283
	c-1.083,4.123-4.188,6.986-9.355,6.986c-6.32,0-9.639-4.471-9.639-10.199V38.88C420.68,33.151,423.996,28.714,430.316,28.714z"/>
<path fill="#FFFFFF" d="M449.799,29.273c0.979,0,1.258-0.279,1.258-1.258v-4.681h3.178v5.938h9.848v2.794h-9.848v13.973h9.848v3.109
	h-10.196c-1.536,0-2.827-1.258-2.827-2.83v-14.25h-6.041v-2.794L449.799,29.273L449.799,29.273z"/>
<path fill="#FFFFFF" d="M477.837,46.355V32.068h-6.354v-2.794h9.529v17.082h7.543v2.795h-18.262v-2.795H477.837L477.837,46.355z
	 M479.408,19.353c1.467,0,2.724,1.258,2.724,2.83c0,1.467-1.257,2.725-2.724,2.725c-1.536,0-2.828-1.257-2.828-2.725
	C476.58,20.61,477.872,19.353,479.408,19.353z"/>
<path fill="#FFFFFF" d="M504.652,47.055c2.584,0,5.133-1.188,5.133-3.389c0-1.782-1.467-2.516-4.26-2.971l-2.828-0.488
	c-3.877-0.629-6.426-2.445-6.426-5.554c0-3.109,3.213-5.938,7.334-5.938c4.293,0,7.506,2.096,8.238,6.567h-3.143
	c-0.699-3.458-3.178-3.982-5.063-3.982c-2.023,0-4.33,1.118-4.33,3.179c0,1.537,0.979,2.271,3.875,2.899
	c0.561,0.105,2.517,0.489,3.18,0.594c3.212,0.559,6.599,1.676,6.599,5.833c0,3.844-3.875,5.869-8.729,5.869
	c-4.922,0-8.379-2.795-9.112-6.986h3.177C499.135,45.971,501.964,47.055,504.652,47.055z"/>
<path fill="#FFFFFF" d="M442.711,68.152l-6.424-0.034v-9.851h1.187v8.803h5.237V68.152z"/>
<path fill="#FFFFFF" d="M448.193,60.887c2.269,0,3.387,1.607,3.387,3.6V64.8h-5.622c0.035,1.571,0.873,2.585,2.235,2.585
	c1.047,0,1.711-0.594,2.06-1.537h1.188c-0.385,1.467-1.434,2.48-3.246,2.48c-2.235,0-3.354-1.607-3.354-3.633v-0.211
	C444.806,62.459,445.958,60.887,448.193,60.887z M448.193,61.83c-1.225,0-2.025,0.804-2.2,2.096h4.434
	C450.253,62.634,449.415,61.83,448.193,61.83z"/>
<path fill="#FFFFFF" d="M462.124,69.48c0-0.943,0.873-1.467,1.537-1.467v-0.524h-0.175c-0.562,0-0.979-0.384-0.979-0.873
	c0-0.56,0.454-0.874,0.979-0.874h0.175v-0.523c-0.804-0.453-1.083-1.188-1.083-1.852c0-1.396,1.117-2.551,3.072-2.551
	c0.385,0,0.769,0.035,1.082,0.141v-0.104c0-0.562,0.453-1.015,1.014-1.015h1.292v0.979h-1.397v0.488
	c0.733,0.453,1.082,1.223,1.082,2.062c0,1.397-1.082,2.516-3.07,2.516h-1.57c-0.352,0-0.629,0.14-0.629,0.454
	c0,0.35,0.277,0.454,0.629,0.454h2.061c1.605,0,3.036,0.908,3.036,2.479c0,1.57-1.604,2.516-3.212,2.516h-0.628
	C463.695,71.855,462.124,71.053,462.124,69.48z M468.025,69.307c0-0.941-0.873-1.502-2.098-1.502H465.3
	c-1.257,0-2.095,0.594-2.095,1.536c0,0.943,0.838,1.502,2.095,1.502h0.628C467.152,70.878,468.025,70.284,468.025,69.307z
	 M467.57,63.402c0-1.084-0.732-1.644-1.954-1.644c-1.224,0-1.955,0.56-1.955,1.644c0,1.117,0.731,1.605,1.955,1.605
	C466.838,65.009,467.57,64.52,467.57,63.402z"/>
<path fill="#FFFFFF" d="M473.298,67.141V62.04h-1.641v-0.978h2.758v1.467h0.524c0.209-0.771,1.291-1.854,2.723-1.572v1.258
	c-1.711-0.523-3.247,0.594-3.247,2.445v2.48h3.212v0.978h-6.494v-0.978H473.298L473.298,67.141z"/>
<path fill="#FFFFFF" d="M483.109,60.887c2.27,0,3.387,1.607,3.387,3.6v0.209c0,2.025-1.117,3.635-3.387,3.635
	c-2.235,0-3.354-1.605-3.354-3.635v-0.209C479.757,62.459,480.874,60.887,483.109,60.887z M483.109,67.385
	c1.396,0,2.27-1.048,2.27-2.689v-0.209c0-1.605-0.873-2.654-2.27-2.654c-1.397,0-2.235,1.014-2.235,2.654v0.209
	C480.874,66.302,481.712,67.385,483.109,67.385z"/>
<path fill="#FFFFFF" d="M489.743,61.063v3.982c0,1.605,0.873,2.305,2.13,2.305c1.466,0,2.13-0.873,2.13-2.479v-3.809h1.117v7.058
	h-1.117v-1.05h-0.522c-0.351,1.014-1.291,1.258-1.99,1.258c-1.92,0-2.862-1.258-2.862-3.283v-3.982H489.743z"/>
<path fill="#FFFFFF" d="M498.473,61.063v1.152h0.523c0.104-0.594,0.663-1.361,1.955-1.361c1.955,0,3.177,1.605,3.177,3.633v0.209
	c0,2.025-1.222,3.6-3.177,3.6c-1.292,0-1.852-0.732-1.955-1.361h-0.523v4.682h-1.115V61.027h1.115V61.063z M500.707,67.314
	c1.396,0,2.27-1.015,2.27-2.619v-0.211c0-1.605-0.873-2.654-2.27-2.654c-1.397,0-2.234,1.014-2.234,2.654v0.211
	C498.473,66.337,499.275,67.314,500.707,67.314z"/>
<path fill="#FFFFFF" d="M509.296,60.887c2.271,0,3.388,1.607,3.388,3.6V64.8h-5.621c0.035,1.571,0.873,2.585,2.233,2.585
	c1.048,0,1.711-0.594,2.06-1.537h1.188c-0.385,1.467-1.433,2.48-3.248,2.48c-2.233,0-3.353-1.607-3.353-3.633v-0.211
	C505.943,62.459,507.063,60.887,509.296,60.887z M509.296,61.83c-1.222,0-2.022,0.804-2.198,2.096h4.436
	C511.355,62.634,510.553,61.83,509.296,61.83z"/>
<path fill="#A1ABB1" d="M554.408,2.69c0-1.502,1.222-2.69,2.688-2.69c1.5,0,2.688,1.223,2.688,2.69c0,1.502-1.224,2.689-2.688,2.689
	C555.596,5.379,554.408,4.157,554.408,2.69z"/>
<path fill="#A1ABB1" d="M557.098,13.519c-1.502,0-2.688-1.223-2.688-2.689c0-1.502,1.222-2.69,2.688-2.69
	c1.5,0,2.688,1.188,2.688,2.69C559.785,12.331,558.598,13.519,557.098,13.519z"/>
<path fill="#FFFFFF" d="M548.961,13.519c-1.501,0-2.689-1.223-2.689-2.689c0-1.502,1.188-2.69,2.689-2.69s2.689,1.188,2.689,2.69
	C551.65,12.331,550.427,13.519,548.961,13.519z"/>
<path fill="#FFFFFF" d="M548.961,21.693c-1.501,0-2.689-1.188-2.689-2.69s1.188-2.69,2.689-2.69s2.689,1.223,2.689,2.69
	S550.427,21.693,548.961,21.693z"/>
<path fill="#FFFFFF" d="M548.961,37.972c-1.501,0-2.689-1.223-2.689-2.69c0-1.502,1.188-2.69,2.689-2.69s2.689,1.188,2.689,2.69
	S550.427,37.972,548.961,37.972z"/>
<path fill="#FFFFFF" d="M538.104,18.968c0-1.502,1.224-2.689,2.688-2.689c1.501,0,2.689,1.222,2.689,2.689
	c0,1.502-1.188,2.69-2.689,2.69C539.325,21.693,538.104,20.471,538.104,18.968z"/>
<path fill="#FFFFFF" d="M538.104,27.143c0-1.502,1.224-2.69,2.688-2.69c1.501,0,2.689,1.223,2.689,2.69
	c0,1.502-1.188,2.689-2.689,2.689C539.325,29.832,538.104,28.609,538.104,27.143z"/>
<path fill="#FFFFFF" d="M529.967,27.143c0-1.502,1.225-2.69,2.688-2.69c1.503,0,2.688,1.223,2.688,2.69
	c0,1.502-1.222,2.689-2.688,2.689S529.967,28.609,529.967,27.143z"/>
<path fill="#FFFFFF" d="M538.104,35.282c0-1.502,1.224-2.69,2.688-2.69c1.501,0,2.689,1.188,2.689,2.69s-1.188,2.69-2.689,2.69
	C539.325,37.972,538.104,36.784,538.104,35.282z"/>
<path fill="#A1ABB1" d="M557.098,46.111c-1.502,0-2.688-1.188-2.688-2.69s1.222-2.688,2.688-2.688c1.5,0,2.688,1.224,2.688,2.688
	C559.785,44.924,558.598,46.111,557.098,46.111z"/>
<path fill="#FFFFFF" d="M548.961,46.111c-1.501,0-2.689-1.188-2.689-2.69s1.188-2.688,2.689-2.688s2.689,1.224,2.689,2.688
	C551.65,44.924,550.427,46.111,548.961,46.111z"/>
<path fill="#A1ABB1" d="M557.098,54.285c-1.502,0-2.688-1.188-2.688-2.689c0-1.501,1.222-2.688,2.688-2.688
	c1.5,0,2.688,1.223,2.688,2.688C559.785,53.063,558.598,54.285,557.098,54.285z"/>
<path fill="#00CE7C" d="M557.098,26.095c-1.502,0-2.688-1.188-2.688-2.688c0-1.502,1.222-2.69,2.688-2.69
	c1.5,0,2.688,1.223,2.688,2.69C559.786,24.872,558.598,26.095,557.098,26.095z"/>
<path fill="#00CE7C" d="M554.408,31.544c0-1.502,1.222-2.69,2.688-2.69c1.5,0,2.688,1.188,2.688,2.69s-1.224,2.69-2.688,2.69
	C555.63,34.234,554.408,33.011,554.408,31.544z"/>
<path fill="#00CE7C" d="M562.544,31.544c0-1.502,1.222-2.69,2.688-2.69c1.502,0,2.688,1.188,2.688,2.69s-1.187,2.69-2.688,2.69
	C563.766,34.234,562.544,33.011,562.544,31.544z"/>
<path fill="#00CE7C" d="M562.544,39.684c0-1.502,1.222-2.688,2.688-2.688c1.502,0,2.688,1.223,2.688,2.688
	c0,1.502-1.187,2.689-2.688,2.689C563.766,42.373,562.544,41.186,562.544,39.684z"/>
<path fill="#00CE7C" d="M562.544,55.997c0-1.503,1.222-2.69,2.688-2.69c1.502,0,2.688,1.188,2.688,2.69s-1.187,2.688-2.688,2.688
	C563.766,58.688,562.544,57.464,562.544,55.997z"/>
<path fill="#00CE7C" d="M573.402,42.373c-1.5,0-2.688-1.188-2.688-2.689c0-1.5,1.188-2.688,2.688-2.688
	c1.502,0,2.688,1.223,2.688,2.688C576.091,41.186,574.869,42.373,573.402,42.373z"/>
<path fill="#00CE7C" d="M573.402,50.547c-1.5,0-2.688-1.188-2.688-2.689c0-1.5,1.188-2.688,2.688-2.688
	c1.502,0,2.688,1.225,2.688,2.688C576.09,49.324,574.869,50.547,573.402,50.547z"/>
<path fill="#00CE7C" d="M581.538,50.547c-1.501,0-2.688-1.188-2.688-2.689c0-1.5,1.225-2.688,2.688-2.688
	c1.502,0,2.688,1.225,2.688,2.688C584.226,49.324,583.04,50.547,581.538,50.547z"/>
<path fill="#00CE7C" d="M573.402,58.688c-1.5,0-2.688-1.224-2.688-2.688c0-1.503,1.188-2.688,2.688-2.688
	c1.502,0,2.688,1.188,2.688,2.688C576.091,57.464,574.869,58.688,573.402,58.688z"/>
<path fill="#00CE7C" d="M554.408,64.137c0-1.503,1.222-2.688,2.688-2.688c1.5,0,2.688,1.223,2.688,2.688
	c0,1.502-1.224,2.689-2.688,2.689C555.63,66.826,554.408,65.639,554.408,64.137z"/>
<path fill="#00CE7C" d="M562.544,64.137c0-1.503,1.222-2.688,2.688-2.688c1.502,0,2.688,1.223,2.688,2.688
	c0,1.502-1.187,2.689-2.688,2.689C563.766,66.826,562.544,65.639,562.544,64.137z"/>
<path fill="#00CE7C" d="M554.408,72.311c0-1.502,1.222-2.688,2.688-2.688c1.5,0,2.688,1.223,2.688,2.688
	c0,1.502-1.224,2.689-2.688,2.689C555.63,75,554.408,73.777,554.408,72.311z"/>
<text transform="matrix(1 0 0 1 48.5 66.8262)" fill="#002B49" font-family="'Verdana'" font-size="12">Marketing Montréal</text>
<text transform="matrix(1 0 0 1 -63 131)" font-family="'MyriadPro-Regular'" font-size="12"> </text>
</svg>
